# xmcd CD database file
#
# Track frame offsets:
#	150
#	14677
#	27955
#	40055
#	54070
#	67537
#	81987
#	95845
#	108425
#	122550
#	145680
#	159940
#	178972
#	199515
#	211802
#	225315
#	237782
#	252640
#	266465
#	279747
#	295312
#
# Disc length: 4134 seconds
#
# Revision: 2
# Processed by: cddbd v1.5.2PL0 Copyright (c) Steve Scherf et al.
# Submitted via: CDex 1.51
#
DISCID=1f102415
DTITLE=Coleman Hawkins - Vol. 117 - Picasso 1929-1949
DYEAR=1954
DGENRE=Jazz
TTITLE0=Picasso
TTITLE1=Phantomesque
TTITLE2=On The Bean
TTITLE3=My Ideal
TTITLE4=Pick-up Boys
TTITLE5=Indian Summer
TTITLE6=Buh De Daht
TTITLE7=Yesterdays
TTITLE8=April In Paris
TTITLE9=The Man I Love
TTITLE10=Sophisticated Lady
TTITLE11=I Can't Believe You're In Love With Me
TTITLE12=I Surrender Dear
TTITLE13=Dinah (Take 1)
TTITLE14=Body And Soul
TTITLE15=Queer Notions
TTITLE16=Hocus Pocus
TTITLE17=Sugar Foot Stomp
TTITLE18=Jamaica Shout
TTITLE19=One Hour (If I Could Be With You One Hour Tonight)
TTITLE20=Hello Lola!
EXTD=YEAR: 1954
EXTT0=
EXTT1=
EXTT2=
EXTT3=
EXTT4=
EXTT5=
EXTT6=
EXTT7=
EXTT8=
EXTT9=
EXTT10=
EXTT11=
EXTT12=
EXTT13=
EXTT14=
EXTT15=
EXTT16=
EXTT17=
EXTT18=
EXTT19=
EXTT20=
PLAYORDER=
